<mxfile host="app.diagrams.net" modified="2024-03-17T04:16:38.541Z" agent="Mozilla/5.0 (Macintosh; Intel Mac OS X 10.15; rv:123.0) Gecko/20100101 Firefox/123.0" etag="lJozWdI8KES_5_1GXFuv" version="24.0.7" type="github">
  <diagram name="Page-1" id="EEaR1XNK-QVyuSoKff3d">
    <mxGraphModel dx="1242" dy="735" grid="1" gridSize="10" guides="1" tooltips="1" connect="1" arrows="1" fold="1" page="1" pageScale="1" pageWidth="850" pageHeight="1100" math="0" shadow="0">
      <root>
        <mxCell id="0" />
        <mxCell id="1" parent="0" />
        <mxCell id="cu0BD1hufG2OrqcNwdF9-1" value="" style="rounded=0;whiteSpace=wrap;html=1;" vertex="1" parent="1">
          <mxGeometry x="120" y="280" width="640" height="70" as="geometry" />
        </mxCell>
        <mxCell id="cu0BD1hufG2OrqcNwdF9-2" value="" style="rounded=0;whiteSpace=wrap;html=1;" vertex="1" parent="1">
          <mxGeometry x="120" y="280" width="60" height="70" as="geometry" />
        </mxCell>
        <mxCell id="cu0BD1hufG2OrqcNwdF9-3" value="" style="rounded=0;whiteSpace=wrap;html=1;" vertex="1" parent="1">
          <mxGeometry x="630" y="280" width="130" height="70" as="geometry" />
        </mxCell>
        <mxCell id="cu0BD1hufG2OrqcNwdF9-4" value="" style="rounded=0;whiteSpace=wrap;html=1;" vertex="1" parent="1">
          <mxGeometry x="540" y="280" width="90" height="70" as="geometry" />
        </mxCell>
        <mxCell id="cu0BD1hufG2OrqcNwdF9-5" value="" style="rounded=0;whiteSpace=wrap;html=1;" vertex="1" parent="1">
          <mxGeometry x="450" y="280" width="90" height="70" as="geometry" />
        </mxCell>
        <mxCell id="cu0BD1hufG2OrqcNwdF9-6" value="Sign Bit" style="text;html=1;align=center;verticalAlign=middle;whiteSpace=wrap;rounded=0;" vertex="1" parent="1">
          <mxGeometry x="110" y="360" width="60" height="30" as="geometry" />
        </mxCell>
        <mxCell id="cu0BD1hufG2OrqcNwdF9-7" value="Time Stamp" style="text;html=1;align=center;verticalAlign=middle;whiteSpace=wrap;rounded=0;" vertex="1" parent="1">
          <mxGeometry x="270" y="360" width="60" height="30" as="geometry" />
        </mxCell>
        <mxCell id="cu0BD1hufG2OrqcNwdF9-8" value="Data Center ID" style="text;html=1;align=center;verticalAlign=middle;whiteSpace=wrap;rounded=0;" vertex="1" parent="1">
          <mxGeometry x="465" y="360" width="60" height="30" as="geometry" />
        </mxCell>
        <mxCell id="cu0BD1hufG2OrqcNwdF9-9" value="Machine ID" style="text;html=1;align=center;verticalAlign=middle;whiteSpace=wrap;rounded=0;" vertex="1" parent="1">
          <mxGeometry x="555" y="360" width="60" height="30" as="geometry" />
        </mxCell>
        <mxCell id="cu0BD1hufG2OrqcNwdF9-10" value="Section" style="text;html=1;align=center;verticalAlign=middle;whiteSpace=wrap;rounded=0;" vertex="1" parent="1">
          <mxGeometry x="660" y="360" width="60" height="30" as="geometry" />
        </mxCell>
        <mxCell id="cu0BD1hufG2OrqcNwdF9-11" value="1" style="text;html=1;align=center;verticalAlign=middle;whiteSpace=wrap;rounded=0;" vertex="1" parent="1">
          <mxGeometry x="120" y="300" width="60" height="30" as="geometry" />
        </mxCell>
        <mxCell id="cu0BD1hufG2OrqcNwdF9-12" value="41" style="text;html=1;align=center;verticalAlign=middle;whiteSpace=wrap;rounded=0;" vertex="1" parent="1">
          <mxGeometry x="280" y="300" width="60" height="30" as="geometry" />
        </mxCell>
        <mxCell id="cu0BD1hufG2OrqcNwdF9-13" value="5" style="text;html=1;align=center;verticalAlign=middle;whiteSpace=wrap;rounded=0;" vertex="1" parent="1">
          <mxGeometry x="465" y="300" width="60" height="30" as="geometry" />
        </mxCell>
        <mxCell id="cu0BD1hufG2OrqcNwdF9-14" value="5" style="text;html=1;align=center;verticalAlign=middle;whiteSpace=wrap;rounded=0;" vertex="1" parent="1">
          <mxGeometry x="555" y="300" width="60" height="30" as="geometry" />
        </mxCell>
        <mxCell id="cu0BD1hufG2OrqcNwdF9-15" value="12" style="text;html=1;align=center;verticalAlign=middle;whiteSpace=wrap;rounded=0;" vertex="1" parent="1">
          <mxGeometry x="660" y="300" width="60" height="30" as="geometry" />
        </mxCell>
      </root>
    </mxGraphModel>
  </diagram>
</mxfile>
